<svg width="76" height="23" viewBox="0 0 76 23" fill="none" xmlns="http://www.w3.org/2000/svg">
<mask id="path-1-outside-1_78_5" maskUnits="userSpaceOnUse" x="-0.505127" y="-0.699951" width="77" height="23" fill="black">
<rect fill="white" x="-0.505127" y="-0.699951" width="77" height="23"/>
<path d="M0.99999 18.052V4.24805L4.24799 1.00005H13.354L16.486 4.13205V6.42305H13.702V5.11805L12.02 3.43605H5.58199L3.78399 5.23405V17.066L5.58199 18.864H12.02L13.702 17.182V15.877H16.486V18.168L13.354 21.3H4.24799L0.99999 18.052ZM19.8115 1.00005H22.5955V18.893H32.8615V21.3H19.8115V1.00005ZM41.3542 1.00005H44.2252L49.9382 17.965H49.9962L55.7092 1.00005H58.5802L51.3882 21.3H48.5462L41.3542 1.00005ZM69.6521 17.269H59.7341V13.673L68.5211 1.00005H72.4361V14.833H74.9011V17.269H72.4361V21.3H69.6521V17.269ZM69.7101 14.92V3.69705H69.5651L62.4601 14.021V14.92H69.7101Z"/>
</mask>
<path d="M0.99999 18.052V4.24805L4.24799 1.00005H13.354L16.486 4.13205V6.42305H13.702V5.11805L12.02 3.43605H5.58199L3.78399 5.23405V17.066L5.58199 18.864H12.02L13.702 17.182V15.877H16.486V18.168L13.354 21.3H4.24799L0.99999 18.052ZM19.8115 1.00005H22.5955V18.893H32.8615V21.3H19.8115V1.00005ZM41.3542 1.00005H44.2252L49.9382 17.965H49.9962L55.7092 1.00005H58.5802L51.3882 21.3H48.5462L41.3542 1.00005ZM69.6521 17.269H59.7341V13.673L68.5211 1.00005H72.4361V14.833H74.9011V17.269H72.4361V21.3H69.6521V17.269ZM69.7101 14.92V3.69705H69.5651L62.4601 14.021V14.92H69.7101Z" fill="url(#paint0_linear_78_5)"/>
<path d="M0.99999 18.052H-9.53674e-06V18.4663L0.292884 18.7592L0.99999 18.052ZM0.99999 4.24805L0.292883 3.54094L-9.53674e-06 3.83384V4.24805H0.99999ZM4.24799 1.00005V4.76837e-05H3.83378L3.54088 0.29294L4.24799 1.00005ZM13.354 1.00005L14.0611 0.29294L13.7682 4.76837e-05H13.354V1.00005ZM16.486 4.13205H17.486V3.71783L17.1931 3.42494L16.486 4.13205ZM16.486 6.42305V7.42305H17.486V6.42305H16.486ZM13.702 6.42305H12.702V7.42305H13.702V6.42305ZM13.702 5.11805H14.702V4.70383L14.4091 4.41094L13.702 5.11805ZM12.02 3.43605L12.7271 2.72894L12.4342 2.43605H12.02V3.43605ZM5.58199 3.43605V2.43605H5.16778L4.87488 2.72894L5.58199 3.43605ZM3.78399 5.23405L3.07688 4.52694L2.78399 4.81984V5.23405H3.78399ZM3.78399 17.066H2.78399V17.4803L3.07688 17.7732L3.78399 17.066ZM5.58199 18.864L4.87488 19.5712L5.16778 19.864H5.58199V18.864ZM12.02 18.864V19.864H12.4342L12.7271 19.5712L12.02 18.864ZM13.702 17.182L14.4091 17.8892L14.702 17.5963V17.182H13.702ZM13.702 15.877V14.877H12.702V15.877H13.702ZM16.486 15.877H17.486V14.877H16.486V15.877ZM16.486 18.168L17.1931 18.8752L17.486 18.5823V18.168H16.486ZM13.354 21.3V22.3H13.7682L14.0611 22.0072L13.354 21.3ZM4.24799 21.3L3.54088 22.0072L3.83378 22.3H4.24799V21.3ZM0.99999 18.052H1.99999V4.24805H0.99999H-9.53674e-06V18.052H0.99999ZM0.99999 4.24805L1.7071 4.95516L4.9551 1.70715L4.24799 1.00005L3.54088 0.29294L0.292883 3.54094L0.99999 4.24805ZM4.24799 1.00005V2.00005H13.354V1.00005V4.76837e-05H4.24799V1.00005ZM13.354 1.00005L12.6469 1.70715L15.7789 4.83916L16.486 4.13205L17.1931 3.42494L14.0611 0.29294L13.354 1.00005ZM16.486 4.13205H15.486V6.42305H16.486H17.486V4.13205H16.486ZM16.486 6.42305V5.42305H13.702V6.42305V7.42305H16.486V6.42305ZM13.702 6.42305H14.702V5.11805H13.702H12.702V6.42305H13.702ZM13.702 5.11805L14.4091 4.41094L12.7271 2.72894L12.02 3.43605L11.3129 4.14315L12.9949 5.82515L13.702 5.11805ZM12.02 3.43605V2.43605H5.58199V3.43605V4.43605H12.02V3.43605ZM5.58199 3.43605L4.87488 2.72894L3.07688 4.52694L3.78399 5.23405L4.4911 5.94115L6.2891 4.14315L5.58199 3.43605ZM3.78399 5.23405H2.78399V17.066H3.78399H4.78399V5.23405H3.78399ZM3.78399 17.066L3.07688 17.7732L4.87488 19.5712L5.58199 18.864L6.2891 18.1569L4.4911 16.3589L3.78399 17.066ZM5.58199 18.864V19.864H12.02V18.864V17.864H5.58199V18.864ZM12.02 18.864L12.7271 19.5712L14.4091 17.8892L13.702 17.182L12.9949 16.4749L11.3129 18.1569L12.02 18.864ZM13.702 17.182H14.702V15.877H13.702H12.702V17.182H13.702ZM13.702 15.877V16.877H16.486V15.877V14.877H13.702V15.877ZM16.486 15.877H15.486V18.168H16.486H17.486V15.877H16.486ZM16.486 18.168L15.7789 17.4609L12.6469 20.5929L13.354 21.3L14.0611 22.0072L17.1931 18.8752L16.486 18.168ZM13.354 21.3V20.3H4.24799V21.3V22.3H13.354V21.3ZM4.24799 21.3L4.9551 20.5929L1.7071 17.3449L0.99999 18.052L0.292884 18.7592L3.54088 22.0072L4.24799 21.3ZM19.8115 1.00005V4.76837e-05H18.8115V1.00005H19.8115ZM22.5955 1.00005H23.5955V4.76837e-05H22.5955V1.00005ZM22.5955 18.893H21.5955V19.893H22.5955V18.893ZM32.8615 18.893H33.8615V17.893H32.8615V18.893ZM32.8615 21.3V22.3H33.8615V21.3H32.8615ZM19.8115 21.3H18.8115V22.3H19.8115V21.3ZM19.8115 1.00005V2.00005H22.5955V1.00005V4.76837e-05H19.8115V1.00005ZM22.5955 1.00005H21.5955V18.893H22.5955H23.5955V1.00005H22.5955ZM22.5955 18.893V19.893H32.8615V18.893V17.893H22.5955V18.893ZM32.8615 18.893H31.8615V21.3H32.8615H33.8615V18.893H32.8615ZM32.8615 21.3V20.3H19.8115V21.3V22.3H32.8615V21.3ZM19.8115 21.3H20.8115V1.00005H19.8115H18.8115V21.3H19.8115ZM41.3542 1.00005V4.76837e-05H39.939L40.4116 1.33399L41.3542 1.00005ZM44.2252 1.00005L45.1729 0.680904L44.9436 4.76837e-05H44.2252V1.00005ZM49.9382 17.965L48.9905 18.2842L49.2197 18.965H49.9382V17.965ZM49.9962 17.965V18.965H50.7146L50.9439 18.2842L49.9962 17.965ZM55.7092 1.00005V4.76837e-05H54.9907L54.7615 0.680904L55.7092 1.00005ZM58.5802 1.00005L59.5228 1.33399L59.9954 4.76837e-05H58.5802V1.00005ZM51.3882 21.3V22.3H52.0948L52.3308 21.634L51.3882 21.3ZM48.5462 21.3L47.6036 21.634L47.8396 22.3H48.5462V21.3ZM41.3542 1.00005V2.00005H44.2252V1.00005V4.76837e-05H41.3542V1.00005ZM44.2252 1.00005L43.2775 1.31919L48.9905 18.2842L49.9382 17.965L50.8859 17.6459L45.1729 0.680904L44.2252 1.00005ZM49.9382 17.965V18.965H49.9962V17.965V16.965H49.9382V17.965ZM49.9962 17.965L50.9439 18.2842L56.6569 1.31919L55.7092 1.00005L54.7615 0.680904L49.0485 17.6459L49.9962 17.965ZM55.7092 1.00005V2.00005H58.5802V1.00005V4.76837e-05H55.7092V1.00005ZM58.5802 1.00005L57.6376 0.666101L50.4456 20.9661L51.3882 21.3L52.3308 21.634L59.5228 1.33399L58.5802 1.00005ZM51.3882 21.3V20.3H48.5462V21.3V22.3H51.3882V21.3ZM48.5462 21.3L49.4888 20.9661L42.2968 0.666101L41.3542 1.00005L40.4116 1.33399L47.6036 21.634L48.5462 21.3ZM69.6521 17.269H70.6521V16.269H69.6521V17.269ZM59.7341 17.269H58.7341V18.269H59.7341V17.269ZM59.7341 13.673L58.9123 13.1033L58.7341 13.3603V13.673H59.7341ZM68.5211 1.00005V4.76837e-05H67.9976L67.6993 0.43025L68.5211 1.00005ZM72.4361 1.00005H73.4361V4.76837e-05H72.4361V1.00005ZM72.4361 14.833H71.4361V15.833H72.4361V14.833ZM74.9011 14.833H75.9011V13.833H74.9011V14.833ZM74.9011 17.269V18.269H75.9011V17.269H74.9011ZM72.4361 17.269V16.269H71.4361V17.269H72.4361ZM72.4361 21.3V22.3H73.4361V21.3H72.4361ZM69.6521 21.3H68.6521V22.3H69.6521V21.3ZM69.7101 14.92V15.92H70.7101V14.92H69.7101ZM69.7101 3.69705H70.7101V2.69705H69.7101V3.69705ZM69.5651 3.69705V2.69705H69.0393L68.7413 3.13013L69.5651 3.69705ZM62.4601 14.021L61.6363 13.4541L61.4601 13.7102V14.021H62.4601ZM62.4601 14.92H61.4601V15.92H62.4601V14.92ZM69.6521 17.269V16.269H59.7341V17.269V18.269H69.6521V17.269ZM59.7341 17.269H60.7341V13.673H59.7341H58.7341V17.269H59.7341ZM59.7341 13.673L60.5558 14.2428L69.3428 1.56984L68.5211 1.00005L67.6993 0.43025L58.9123 13.1033L59.7341 13.673ZM68.5211 1.00005V2.00005H72.4361V1.00005V4.76837e-05H68.5211V1.00005ZM72.4361 1.00005H71.4361V14.833H72.4361H73.4361V1.00005H72.4361ZM72.4361 14.833V15.833H74.9011V14.833V13.833H72.4361V14.833ZM74.9011 14.833H73.9011V17.269H74.9011H75.9011V14.833H74.9011ZM74.9011 17.269V16.269H72.4361V17.269V18.269H74.9011V17.269ZM72.4361 17.269H71.4361V21.3H72.4361H73.4361V17.269H72.4361ZM72.4361 21.3V20.3H69.6521V21.3V22.3H72.4361V21.3ZM69.6521 21.3H70.6521V17.269H69.6521H68.6521V21.3H69.6521ZM69.7101 14.92H70.7101V3.69705H69.7101H68.7101V14.92H69.7101ZM69.7101 3.69705V2.69705H69.5651V3.69705V4.69705H69.7101V3.69705ZM69.5651 3.69705L68.7413 3.13013L61.6363 13.4541L62.4601 14.021L63.2838 14.588L70.3888 4.26397L69.5651 3.69705ZM62.4601 14.021H61.4601V14.92H62.4601H63.4601V14.021H62.4601ZM62.4601 14.92V15.92H69.7101V14.92V13.92H62.4601V14.92Z" fill="white" mask="url(#path-1-outside-1_78_5)"/>
<defs>
<linearGradient id="paint0_linear_78_5" x1="30.9949" y1="-5.69995" x2="30.9949" y2="29.3" gradientUnits="userSpaceOnUse">
<stop stop-color="white"/>
<stop offset="1" stop-color="#999999"/>
</linearGradient>
</defs>
</svg>
