<svg width="10" height="10" viewBox="0 0 10 10" fill="none" xmlns="http://www.w3.org/2000/svg">
<path d="M4.72724 0.593811C2.38349 0.593811 0.0397949 1.76569 0.0397949 3.52346C0.0397949 4.69533 0.918701 5.28123 0.918701 6.45311C0.918701 7.33201 0.625732 7.33201 0.625732 7.91795C0.625732 8.21088 1.56343 8.54299 2.38351 8.79682V9.96869H7.07095V8.79682C7.07095 8.79682 8.83983 8.25078 8.82876 7.91791C8.81054 7.37207 8.53579 7.33198 8.53579 6.45311C8.53579 5.86717 9.42724 4.66756 9.41466 3.52346C9.41466 1.76565 7.07095 0.593811 4.72724 0.593811ZM2.96942 4.10938C3.61663 4.10938 4.1413 4.63407 4.1413 5.28125C4.1413 5.92844 3.61663 6.45313 2.96942 6.45313C2.32228 6.45311 1.79761 5.92842 1.79761 5.28123C1.79761 4.63405 2.32226 4.10936 2.96944 4.10936L2.96942 4.10938ZM6.48501 4.10938C7.1322 4.10938 7.65688 4.63407 7.65688 5.28125C7.65688 5.92844 7.1322 6.45313 6.48501 6.45313C5.83782 6.45313 5.31313 5.92844 5.31313 5.28125C5.31313 4.63407 5.83782 4.10938 6.48501 4.10938ZM4.72724 6.16016C5.0202 6.16016 5.60614 7.33203 5.60614 7.625C5.60614 8.2109 5.60614 8.2109 5.31317 8.2109H4.1413C3.84833 8.2109 3.84833 8.2109 3.84833 7.62496C3.84833 7.33199 4.43427 6.16016 4.72724 6.16016Z" fill="white"/>
</svg>
