<svg width="8" height="12" viewBox="0 0 8 12" fill="none" xmlns="http://www.w3.org/2000/svg">
<path d="M3.374 6.62569C2.96333 6.48569 2.59 6.34569 2.254 6.20569C1.918 6.05636 1.62867 5.87903 1.386 5.67369C1.14333 5.46836 0.952 5.22569 0.812 4.94569C0.681333 4.65636 0.616 4.30636 0.616 3.89569C0.616 3.26103 0.812 2.72903 1.204 2.29969C1.596 1.86103 2.156 1.56236 2.884 1.40369V0.269694C2.968 0.251028 3.09867 0.227694 3.276 0.199694C3.45333 0.171695 3.63533 0.157695 3.822 0.157695C4.186 0.157695 4.47067 0.223028 4.676 0.353695C4.88133 0.475028 4.984 0.741027 4.984 1.15169V1.33369C5.56267 1.40836 6.02467 1.55769 6.37 1.78169C6.72467 2.00569 6.902 2.31369 6.902 2.70569C6.902 2.94836 6.846 3.15836 6.734 3.33569C6.622 3.50369 6.48667 3.64836 6.328 3.76969C6.12267 3.63903 5.84733 3.52703 5.502 3.43369C5.15667 3.33103 4.77867 3.27969 4.368 3.27969C3.948 3.27969 3.64 3.34036 3.444 3.46169C3.248 3.57369 3.15 3.71836 3.15 3.89569C3.15 4.03569 3.21067 4.15236 3.332 4.24569C3.45333 4.32969 3.63533 4.40903 3.878 4.48369L4.62 4.72169C5.49733 5.00169 6.16933 5.36103 6.636 5.79969C7.112 6.22903 7.35 6.81703 7.35 7.56369C7.35 8.19836 7.14933 8.73969 6.748 9.18769C6.34667 9.62636 5.75867 9.92503 4.984 10.0837V11.2037C4.9 11.2224 4.76933 11.2457 4.592 11.2737C4.41467 11.3017 4.23267 11.3157 4.046 11.3157C3.682 11.3157 3.39733 11.2504 3.192 11.1197C2.98667 10.9984 2.884 10.7324 2.884 10.3217V10.1817C2.548 10.1444 2.24 10.0837 1.96 9.99969C1.68933 9.91569 1.45133 9.80836 1.246 9.67769C1.05 9.54703 0.896 9.39303 0.784 9.21569C0.672 9.03836 0.616 8.83769 0.616 8.61369C0.616 8.34303 0.695333 8.11436 0.854 7.92769C1.01267 7.73169 1.18533 7.58236 1.372 7.47969C1.63333 7.68503 1.95067 7.86236 2.324 8.01169C2.70667 8.16103 3.122 8.23569 3.57 8.23569C4.02733 8.23569 4.34933 8.16569 4.536 8.02569C4.72267 7.88569 4.816 7.72236 4.816 7.53569C4.816 7.34903 4.74133 7.20903 4.592 7.11569C4.44267 7.01303 4.23267 6.91503 3.962 6.82169L3.374 6.62569Z" fill="#040404"/>
</svg>
