<svg width="97" height="93" viewBox="0 0 97 93" fill="none" xmlns="http://www.w3.org/2000/svg">
<g filter="url(#filter0_d_374_57)">
<path d="M73 46.5C73 60.031 62.031 71 48.5 71C34.969 71 24 60.031 24 46.5C24 32.969 34.969 22 48.5 22C62.031 22 73 32.969 73 46.5ZM28.7328 46.5C28.7328 57.4171 37.5829 66.2672 48.5 66.2672C59.4171 66.2672 68.2672 57.4171 68.2672 46.5C68.2672 35.5829 59.4171 26.7328 48.5 26.7328C37.5829 26.7328 28.7328 35.5829 28.7328 46.5Z" fill="#0274ED"/>
</g>
<path d="M65 46.5C65 55.6127 57.6127 63 48.5 63C39.3873 63 32 55.6127 32 46.5C32 37.3873 39.3873 30 48.5 30C57.6127 30 65 37.3873 65 46.5ZM33.6963 46.5C33.6963 54.6758 40.3242 61.3037 48.5 61.3037C56.6758 61.3037 63.3037 54.6758 63.3037 46.5C63.3037 38.3242 56.6758 31.6963 48.5 31.6963C40.3242 31.6963 33.6963 38.3242 33.6963 46.5Z" fill="white" fill-opacity="0.25"/>
<path d="M76 46.5C76 61.6878 63.6878 74 48.5 74C33.3122 74 21 61.6878 21 46.5C21 31.3122 33.3122 19 48.5 19C63.6878 19 76 31.3122 76 46.5ZM25.0197 46.5C25.0197 59.4678 35.5322 69.9803 48.5 69.9803C61.4678 69.9803 71.9803 59.4678 71.9803 46.5C71.9803 33.5322 61.4678 23.0197 48.5 23.0197C35.5322 23.0197 25.0197 33.5322 25.0197 46.5Z" fill="white" fill-opacity="0.25"/>
<g filter="url(#filter1_d_374_57)">
<path d="M71.4805 69.4806C77.5754 63.3856 80.9995 55.1191 80.9995 46.4996C80.9995 37.8801 77.5754 29.6136 71.4805 23.5186L70.3779 24.6212C76.1804 30.4237 79.4402 38.2936 79.4402 46.4996C79.4402 54.7056 76.1804 62.5755 70.3779 68.378L71.4805 69.4806Z" fill="white"/>
</g>
<g filter="url(#filter2_d_374_57)">
<path d="M25.519 69.4806C19.4241 63.3856 16 55.1191 16 46.4996C16 37.8801 19.4241 29.6136 25.519 23.5186L26.6216 24.6212C20.8191 30.4237 17.5593 38.2936 17.5593 46.4996C17.5593 54.7056 20.8191 62.5755 26.6216 68.378L25.519 69.4806Z" fill="white"/>
</g>
<path d="M46.96 50.24H51.92V52H45.12V40.8H51.84V42.56H46.96V45.472H51.44V47.216H46.96V50.24Z" fill="white"/>
<defs>
<filter id="filter0_d_374_57" x="6" y="4" width="85" height="85" filterUnits="userSpaceOnUse" color-interpolation-filters="sRGB">
<feFlood flood-opacity="0" result="BackgroundImageFix"/>
<feColorMatrix in="SourceAlpha" type="matrix" values="0 0 0 0 0 0 0 0 0 0 0 0 0 0 0 0 0 0 127 0" result="hardAlpha"/>
<feOffset/>
<feGaussianBlur stdDeviation="9"/>
<feComposite in2="hardAlpha" operator="out"/>
<feColorMatrix type="matrix" values="0 0 0 0 0.00784314 0 0 0 0 0.454902 0 0 0 0 0.929412 0 0 0 1 0"/>
<feBlend mode="normal" in2="BackgroundImageFix" result="effect1_dropShadow_374_57"/>
<feBlend mode="normal" in="SourceGraphic" in2="effect1_dropShadow_374_57" result="shape"/>
</filter>
<filter id="filter1_d_374_57" x="54.3779" y="7.51855" width="42.6221" height="77.9619" filterUnits="userSpaceOnUse" color-interpolation-filters="sRGB">
<feFlood flood-opacity="0" result="BackgroundImageFix"/>
<feColorMatrix in="SourceAlpha" type="matrix" values="0 0 0 0 0 0 0 0 0 0 0 0 0 0 0 0 0 0 127 0" result="hardAlpha"/>
<feOffset/>
<feGaussianBlur stdDeviation="8"/>
<feComposite in2="hardAlpha" operator="out"/>
<feColorMatrix type="matrix" values="0 0 0 0 1 0 0 0 0 1 0 0 0 0 1 0 0 0 1 0"/>
<feBlend mode="normal" in2="BackgroundImageFix" result="effect1_dropShadow_374_57"/>
<feBlend mode="normal" in="SourceGraphic" in2="effect1_dropShadow_374_57" result="shape"/>
</filter>
<filter id="filter2_d_374_57" x="0" y="7.51855" width="42.6221" height="77.9619" filterUnits="userSpaceOnUse" color-interpolation-filters="sRGB">
<feFlood flood-opacity="0" result="BackgroundImageFix"/>
<feColorMatrix in="SourceAlpha" type="matrix" values="0 0 0 0 0 0 0 0 0 0 0 0 0 0 0 0 0 0 127 0" result="hardAlpha"/>
<feOffset/>
<feGaussianBlur stdDeviation="8"/>
<feComposite in2="hardAlpha" operator="out"/>
<feColorMatrix type="matrix" values="0 0 0 0 1 0 0 0 0 1 0 0 0 0 1 0 0 0 1 0"/>
<feBlend mode="normal" in2="BackgroundImageFix" result="effect1_dropShadow_374_57"/>
<feBlend mode="normal" in="SourceGraphic" in2="effect1_dropShadow_374_57" result="shape"/>
</filter>
</defs>
</svg>
