<svg width="100" height="31" viewBox="0 0 100 31" fill="none" xmlns="http://www.w3.org/2000/svg">
<g filter="url(#filter0_d_78_4)">
<mask id="path-1-outside-1_78_4" maskUnits="userSpaceOnUse" x="3.67346" y="-0.699951" width="93" height="23" fill="black">
<rect fill="white" x="3.67346" y="-0.699951" width="93" height="23"/>
<path d="M5.00002 1.00005H8.53802L17.586 14.775H17.644V1.00005H21.443V21.3H17.905L8.85702 7.55405H8.79902V21.3H5.00002V1.00005ZM31.1947 1.00005H34.7907L42.2147 21.3H38.2127L36.5597 16.805H29.4257L27.7727 21.3H23.7707L31.1947 1.00005ZM35.6897 13.557L32.9927 5.84305H32.9347L30.3247 13.557H35.6897ZM50.2328 1.00005H53.8288L61.2528 21.3H57.2508L55.5978 16.805H48.4638L46.8108 21.3H42.8088L50.2328 1.00005ZM54.7278 13.557L52.0308 5.84305H51.9728L49.3628 13.557H54.7278ZM59.5279 1.00005H63.5879L68.6339 16.602H68.6919L73.7379 1.00005H77.798L70.577 21.3H66.7489L59.5279 1.00005ZM83.4944 1.00005H87.0904L94.5144 21.3H90.5124L88.8594 16.805H81.7254L80.0724 21.3H76.0704L83.4944 1.00005ZM87.9894 13.557L85.2924 5.84305H85.2344L82.6244 13.557H87.9894Z"/>
</mask>
<path d="M5.00002 1.00005H8.53802L17.586 14.775H17.644V1.00005H21.443V21.3H17.905L8.85702 7.55405H8.79902V21.3H5.00002V1.00005ZM31.1947 1.00005H34.7907L42.2147 21.3H38.2127L36.5597 16.805H29.4257L27.7727 21.3H23.7707L31.1947 1.00005ZM35.6897 13.557L32.9927 5.84305H32.9347L30.3247 13.557H35.6897ZM50.2328 1.00005H53.8288L61.2528 21.3H57.2508L55.5978 16.805H48.4638L46.8108 21.3H42.8088L50.2328 1.00005ZM54.7278 13.557L52.0308 5.84305H51.9728L49.3628 13.557H54.7278ZM59.5279 1.00005H63.5879L68.6339 16.602H68.6919L73.7379 1.00005H77.798L70.577 21.3H66.7489L59.5279 1.00005ZM83.4944 1.00005H87.0904L94.5144 21.3H90.5124L88.8594 16.805H81.7254L80.0724 21.3H76.0704L83.4944 1.00005ZM87.9894 13.557L85.2924 5.84305H85.2344L82.6244 13.557H87.9894Z" fill="url(#paint0_linear_78_4)"/>
<path d="M5.00002 1.00005V4.76837e-05H4.00002V1.00005H5.00002ZM8.53802 1.00005L9.37384 0.451046L9.07761 4.76837e-05H8.53802V1.00005ZM17.586 14.775L16.7502 15.3241L17.0464 15.775H17.586V14.775ZM17.644 14.775V15.775H18.644V14.775H17.644ZM17.644 1.00005V4.76837e-05H16.644V1.00005H17.644ZM21.443 1.00005H22.443V4.76837e-05H21.443V1.00005ZM21.443 21.3V22.3H22.443V21.3H21.443ZM17.905 21.3L17.0697 21.8499L17.3661 22.3H17.905V21.3ZM8.85702 7.55405L9.69231 7.00424L9.39598 6.55405H8.85702V7.55405ZM8.79902 7.55405V6.55405H7.79902V7.55405H8.79902ZM8.79902 21.3V22.3H9.79902V21.3H8.79902ZM5.00002 21.3H4.00002V22.3H5.00002V21.3ZM5.00002 1.00005V2.00005H8.53802V1.00005V4.76837e-05H5.00002V1.00005ZM8.53802 1.00005L7.7022 1.54905L16.7502 15.3241L17.586 14.775L18.4218 14.226L9.37384 0.451046L8.53802 1.00005ZM17.586 14.775V15.775H17.644V14.775V13.775H17.586V14.775ZM17.644 14.775H18.644V1.00005H17.644H16.644V14.775H17.644ZM17.644 1.00005V2.00005H21.443V1.00005V4.76837e-05H17.644V1.00005ZM21.443 1.00005H20.443V21.3H21.443H22.443V1.00005H21.443ZM21.443 21.3V20.3H17.905V21.3V22.3H21.443V21.3ZM17.905 21.3L18.7403 20.7502L9.69231 7.00424L8.85702 7.55405L8.02173 8.10386L17.0697 21.8499L17.905 21.3ZM8.85702 7.55405V6.55405H8.79902V7.55405V8.55405H8.85702V7.55405ZM8.79902 7.55405H7.79902V21.3H8.79902H9.79902V7.55405H8.79902ZM8.79902 21.3V20.3H5.00002V21.3V22.3H8.79902V21.3ZM5.00002 21.3H6.00002V1.00005H5.00002H4.00002V21.3H5.00002ZM31.1947 1.00005V4.76837e-05H30.4957L30.2556 0.656582L31.1947 1.00005ZM34.7907 1.00005L35.7299 0.656582L35.4898 4.76837e-05H34.7907V1.00005ZM42.2147 21.3V22.3H43.6452L43.1539 20.9566L42.2147 21.3ZM38.2127 21.3L37.2742 21.6452L37.515 22.3H38.2127V21.3ZM36.5597 16.805L37.4983 16.4599L37.2575 15.805H36.5597V16.805ZM29.4257 16.805V15.805H28.728L28.4872 16.4599L29.4257 16.805ZM27.7727 21.3V22.3H28.4705L28.7113 21.6452L27.7727 21.3ZM23.7707 21.3L22.8316 20.9566L22.3402 22.3H23.7707V21.3ZM35.6897 13.557V14.557H37.0987L36.6337 13.227L35.6897 13.557ZM32.9927 5.84305L33.9367 5.51301L33.7025 4.84305H32.9927V5.84305ZM32.9347 5.84305V4.84305H32.2174L31.9875 5.52255L32.9347 5.84305ZM30.3247 13.557L29.3775 13.2365L28.9307 14.557H30.3247V13.557ZM31.1947 1.00005V2.00005H34.7907V1.00005V4.76837e-05H31.1947V1.00005ZM34.7907 1.00005L33.8516 1.34351L41.2756 21.6435L42.2147 21.3L43.1539 20.9566L35.7299 0.656582L34.7907 1.00005ZM42.2147 21.3V20.3H38.2127V21.3V22.3H42.2147V21.3ZM38.2127 21.3L39.1513 20.9549L37.4983 16.4599L36.5597 16.805L35.6212 17.1502L37.2742 21.6452L38.2127 21.3ZM36.5597 16.805V15.805H29.4257V16.805V17.805H36.5597V16.805ZM29.4257 16.805L28.4872 16.4599L26.8342 20.9549L27.7727 21.3L28.7113 21.6452L30.3643 17.1502L29.4257 16.805ZM27.7727 21.3V20.3H23.7707V21.3V22.3H27.7727V21.3ZM23.7707 21.3L24.7099 21.6435L32.1339 1.34351L31.1947 1.00005L30.2556 0.656582L22.8316 20.9566L23.7707 21.3ZM35.6897 13.557L36.6337 13.227L33.9367 5.51301L32.9927 5.84305L32.0488 6.17308L34.7458 13.8871L35.6897 13.557ZM32.9927 5.84305V4.84305H32.9347V5.84305V6.84305H32.9927V5.84305ZM32.9347 5.84305L31.9875 5.52255L29.3775 13.2365L30.3247 13.557L31.272 13.8775L33.882 6.16355L32.9347 5.84305ZM30.3247 13.557V14.557H35.6897V13.557V12.557H30.3247V13.557ZM50.2328 1.00005V4.76837e-05H49.5337L49.2936 0.656582L50.2328 1.00005ZM53.8288 1.00005L54.7679 0.656582L54.5278 4.76837e-05H53.8288V1.00005ZM61.2528 21.3V22.3H62.6833L62.1919 20.9566L61.2528 21.3ZM57.2508 21.3L56.3122 21.6452L56.553 22.3H57.2508V21.3ZM55.5978 16.805L56.5363 16.4599L56.2955 15.805H55.5978V16.805ZM48.4638 16.805V15.805H47.766L47.5252 16.4599L48.4638 16.805ZM46.8108 21.3V22.3H47.5085L47.7493 21.6452L46.8108 21.3ZM42.8088 21.3L41.8696 20.9566L41.3783 22.3H42.8088V21.3ZM54.7278 13.557V14.557H56.1368L55.6717 13.227L54.7278 13.557ZM52.0308 5.84305L52.9747 5.51301L52.7405 4.84305H52.0308V5.84305ZM51.9728 5.84305V4.84305H51.2554L51.0255 5.52255L51.9728 5.84305ZM49.3628 13.557L48.4155 13.2365L47.9687 14.557H49.3628V13.557ZM50.2328 1.00005V2.00005H53.8288V1.00005V4.76837e-05H50.2328V1.00005ZM53.8288 1.00005L52.8896 1.34351L60.3136 21.6435L61.2528 21.3L62.1919 20.9566L54.7679 0.656582L53.8288 1.00005ZM61.2528 21.3V20.3H57.2508V21.3V22.3H61.2528V21.3ZM57.2508 21.3L58.1893 20.9549L56.5363 16.4599L55.5978 16.805L54.6592 17.1502L56.3122 21.6452L57.2508 21.3ZM55.5978 16.805V15.805H48.4638V16.805V17.805H55.5978V16.805ZM48.4638 16.805L47.5252 16.4599L45.8722 20.9549L46.8108 21.3L47.7493 21.6452L49.4023 17.1502L48.4638 16.805ZM46.8108 21.3V20.3H42.8088V21.3V22.3H46.8108V21.3ZM42.8088 21.3L43.7479 21.6435L51.1719 1.34351L50.2328 1.00005L49.2936 0.656582L41.8696 20.9566L42.8088 21.3ZM54.7278 13.557L55.6717 13.227L52.9747 5.51301L52.0308 5.84305L51.0868 6.17308L53.7838 13.8871L54.7278 13.557ZM52.0308 5.84305V4.84305H51.9728V5.84305V6.84305H52.0308V5.84305ZM51.9728 5.84305L51.0255 5.52255L48.4155 13.2365L49.3628 13.557L50.31 13.8775L52.92 6.16355L51.9728 5.84305ZM49.3628 13.557V14.557H54.7278V13.557V12.557H49.3628V13.557ZM59.528 1.00005V4.76837e-05H58.1109L58.5858 1.33519L59.528 1.00005ZM63.588 1.00005L64.5394 0.692322L64.3155 4.76837e-05H63.588V1.00005ZM68.6339 16.602L67.6825 16.9098L67.9064 17.602H68.6339V16.602ZM68.6919 16.602V17.602H69.4195L69.6434 16.9098L68.6919 16.602ZM73.7379 1.00005V4.76837e-05H73.0104L72.7865 0.692322L73.7379 1.00005ZM77.798 1.00005L78.7401 1.33519L79.215 4.76837e-05H77.798V1.00005ZM70.577 21.3V22.3H71.2826L71.5191 21.6352L70.577 21.3ZM66.7489 21.3L65.8068 21.6352L66.0433 22.3H66.7489V21.3ZM59.528 1.00005V2.00005H63.588V1.00005V4.76837e-05H59.528V1.00005ZM63.588 1.00005L62.6365 1.30777L67.6825 16.9098L68.6339 16.602L69.5854 16.2943L64.5394 0.692322L63.588 1.00005ZM68.6339 16.602V17.602H68.6919V16.602V15.602H68.6339V16.602ZM68.6919 16.602L69.6434 16.9098L74.6894 1.30777L73.7379 1.00005L72.7865 0.692322L67.7405 16.2943L68.6919 16.602ZM73.7379 1.00005V2.00005H77.798V1.00005V4.76837e-05H73.7379V1.00005ZM77.798 1.00005L76.8558 0.664906L69.6348 20.9649L70.577 21.3L71.5191 21.6352L78.7401 1.33519L77.798 1.00005ZM70.577 21.3V20.3H66.7489V21.3V22.3H70.577V21.3ZM66.7489 21.3L67.6911 20.9649L60.4701 0.664906L59.528 1.00005L58.5858 1.33519L65.8068 21.6352L66.7489 21.3ZM83.4944 1.00005V4.76837e-05H82.7954L82.5553 0.656582L83.4944 1.00005ZM87.0904 1.00005L88.0296 0.656582L87.7895 4.76837e-05H87.0904V1.00005ZM94.5144 21.3V22.3H95.9449L95.4536 20.9566L94.5144 21.3ZM90.5124 21.3L89.5739 21.6452L89.8147 22.3H90.5124V21.3ZM88.8594 16.805L89.798 16.4599L89.5571 15.805H88.8594V16.805ZM81.7254 16.805V15.805H81.0277L80.7869 16.4599L81.7254 16.805ZM80.0724 21.3V22.3H80.7701L81.011 21.6452L80.0724 21.3ZM76.0704 21.3L75.1312 20.9566L74.6399 22.3H76.0704V21.3ZM87.9894 13.557V14.557H89.3984L88.9334 13.227L87.9894 13.557ZM85.2924 5.84305L86.2364 5.51301L86.0022 4.84305H85.2924V5.84305ZM85.2344 5.84305V4.84305H84.5171L84.2872 5.52255L85.2344 5.84305ZM82.6244 13.557L81.6772 13.2365L81.2304 14.557H82.6244V13.557ZM83.4944 1.00005V2.00005H87.0904V1.00005V4.76837e-05H83.4944V1.00005ZM87.0904 1.00005L86.1513 1.34351L93.5752 21.6435L94.5144 21.3L95.4536 20.9566L88.0296 0.656582L87.0904 1.00005ZM94.5144 21.3V20.3H90.5124V21.3V22.3H94.5144V21.3ZM90.5124 21.3L91.451 20.9549L89.798 16.4599L88.8594 16.805L87.9209 17.1502L89.5739 21.6452L90.5124 21.3ZM88.8594 16.805V15.805H81.7254V16.805V17.805H88.8594V16.805ZM81.7254 16.805L80.7869 16.4599L79.1339 20.9549L80.0724 21.3L81.011 21.6452L82.664 17.1502L81.7254 16.805ZM80.0724 21.3V20.3H76.0704V21.3V22.3H80.0724V21.3ZM76.0704 21.3L77.0096 21.6435L84.4336 1.34351L83.4944 1.00005L82.5553 0.656582L75.1312 20.9566L76.0704 21.3ZM87.9894 13.557L88.9334 13.227L86.2364 5.51301L85.2924 5.84305L84.3484 6.17308L87.0454 13.8871L87.9894 13.557ZM85.2924 5.84305V4.84305H85.2344V5.84305V6.84305H85.2924V5.84305ZM85.2344 5.84305L84.2872 5.52255L81.6772 13.2365L82.6244 13.557L83.5717 13.8775L86.1817 6.16355L85.2344 5.84305ZM82.6244 13.557V14.557H87.9894V13.557V12.557H82.6244V13.557Z" fill="#D32154" mask="url(#path-1-outside-1_78_4)"/>
</g>
<defs>
<filter id="filter0_d_78_4" x="0" y="0" width="99.9449" height="30.3" filterUnits="userSpaceOnUse" color-interpolation-filters="sRGB">
<feFlood flood-opacity="0" result="BackgroundImageFix"/>
<feColorMatrix in="SourceAlpha" type="matrix" values="0 0 0 0 0 0 0 0 0 0 0 0 0 0 0 0 0 0 127 0" result="hardAlpha"/>
<feOffset dy="4"/>
<feGaussianBlur stdDeviation="2"/>
<feComposite in2="hardAlpha" operator="out"/>
<feColorMatrix type="matrix" values="0 0 0 0 0 0 0 0 0 0 0 0 0 0 0 0 0 0 0.25 0"/>
<feBlend mode="normal" in2="BackgroundImageFix" result="effect1_dropShadow_78_4"/>
<feBlend mode="normal" in="SourceGraphic" in2="effect1_dropShadow_78_4" result="shape"/>
</filter>
<linearGradient id="paint0_linear_78_4" x1="48.6735" y1="-5.69995" x2="48.6735" y2="29.3" gradientUnits="userSpaceOnUse">
<stop stop-color="#EF2E6B"/>
<stop offset="1" stop-color="#CD0E21"/>
</linearGradient>
</defs>
</svg>
