<svg width="18" height="22" viewBox="0 0 18 22" fill="none" xmlns="http://www.w3.org/2000/svg">
<g filter="url(#filter0_d_74_100)">
<path d="M12.453 8.04547H13.893L7.14299 14.7955L6.39299 14.0905M2.67299 18.6355L3.30299 19.2655C3.37237 19.335 3.45479 19.3902 3.54552 19.4278C3.63625 19.4654 3.73351 19.4848 3.83174 19.4848C3.92996 19.4848 4.02723 19.4654 4.11796 19.4278C4.20869 19.3902 4.2911 19.335 4.36049 19.2655L6.70049 16.9255L8.71049 18.9205L9.76799 17.863L8.70299 16.798L15.393 10.108V6.54547H11.8305L5.14049 13.2355L4.07549 12.1705L3.01799 13.228L5.02049 15.2305L2.68049 17.5705C2.38049 17.8705 2.38049 18.343 2.67299 18.6355Z" fill="white"/>
</g>
<defs>
<filter id="filter0_d_74_100" x="-1" y="0" width="20" height="21.4848" filterUnits="userSpaceOnUse" color-interpolation-filters="sRGB">
<feFlood flood-opacity="0" result="BackgroundImageFix"/>
<feColorMatrix in="SourceAlpha" type="matrix" values="0 0 0 0 0 0 0 0 0 0 0 0 0 0 0 0 0 0 127 0" result="hardAlpha"/>
<feOffset dy="1"/>
<feGaussianBlur stdDeviation="0.5"/>
<feComposite in2="hardAlpha" operator="out"/>
<feColorMatrix type="matrix" values="0 0 0 0 0 0 0 0 0 0 0 0 0 0 0 0 0 0 0.63 0"/>
<feBlend mode="normal" in2="BackgroundImageFix" result="effect1_dropShadow_74_100"/>
<feBlend mode="normal" in="SourceGraphic" in2="effect1_dropShadow_74_100" result="shape"/>
</filter>
</defs>
</svg>
